<svg width="64" height="64" viewBox="0 0 64 64" fill="none" xmlns="http://www.w3.org/2000/svg">
<rect width="64" height="64" fill="white" fill-opacity="0.37"/>
<rect x="2" y="2" width="60" height="60" fill="#D65A31" stroke="white" stroke-width="4"/>
<rect x="10.25" y="25.5357" width="6.07141" height="6.07141" fill="#D65A31" stroke="white" stroke-width="2.5"/>
<rect x="24.5357" y="25.5357" width="6.07141" height="6.07141" fill="#D65A31" stroke="white" stroke-width="2.5"/>
<rect x="17.3929" y="46.9644" width="6.07141" height="6.07141" fill="#D65A31" stroke="white" stroke-width="2.5"/>
<rect x="17.3929" y="39.8215" width="6.07141" height="6.07141" fill="#D65A31" stroke="white" stroke-width="2.5"/>
<rect x="17.3929" y="32.6786" width="6.07141" height="6.07141" fill="#D65A31" stroke="white" stroke-width="2.5"/>
<rect x="17.3929" y="25.5357" width="6.07141" height="6.07141" fill="#D65A31" stroke="white" stroke-width="2.5"/>
<rect x="17.3929" y="18.3929" width="6.07141" height="6.07141" fill="#D65A31" stroke="white" stroke-width="2.5"/>
<rect x="17.3929" y="11.25" width="6.07141" height="6.07141" fill="#D65A31" stroke="white" stroke-width="2.5"/>
<rect x="24.5357" y="11.25" width="6.07141" height="6.07141" fill="#D65A31" stroke="white" stroke-width="2.5"/>
<rect x="31.6786" y="11.25" width="6.07141" height="6.07141" fill="#D65A31" stroke="white" stroke-width="2.5"/>
<rect x="34" y="26" width="15.2" height="28.5" fill="#D65A31"/>
<path d="M41 29H35V50H41" stroke="white" stroke-width="2"/>
<rect width="5.7" height="26.6" transform="matrix(-1 0 0 1 53 26.9499)" fill="#D65A31"/>
<path d="M46 29H52V50H46" stroke="white" stroke-width="2"/>
<rect x="38.2001" y="32.0999" width="3" height="3" fill="#222831" stroke="white" stroke-width="0.8"/>
<rect x="38.2001" y="35.9" width="3" height="3" fill="#222831" stroke="white" stroke-width="0.8"/>
<rect x="38.2001" y="39.7001" width="3" height="3" fill="#222831" stroke="white" stroke-width="0.8"/>
<rect x="38.2001" y="43.4999" width="3" height="3" fill="#222831" stroke="white" stroke-width="0.8"/>
<rect x="41.9999" y="32.0999" width="3" height="3" fill="#222831" stroke="white" stroke-width="0.8"/>
<rect x="45.8001" y="33.9999" width="3" height="3" fill="#222831" stroke="white" stroke-width="0.8"/>
<rect x="45.8001" y="37.8001" width="3" height="3" fill="#222831" stroke="white" stroke-width="0.8"/>
<rect x="41.9999" y="43.4999" width="3" height="3" fill="#222831" stroke="white" stroke-width="0.8"/>
<rect x="45.8001" y="41.5999" width="3" height="3" fill="#222831" stroke="white" stroke-width="0.8"/>
</svg>
